<?xml version="1.0" encoding="UTF-8" standalone="no"?><!DOCTYPE svg PUBLIC "-//W3C//DTD SVG 1.1//EN" "http://www.w3.org/Graphics/SVG/1.1/DTD/svg11.dtd"><svg width="100%" height="100%" viewBox="0 0 6588 2084" version="1.1" xmlns="http://www.w3.org/2000/svg" xmlns:xlink="http://www.w3.org/1999/xlink" xml:space="preserve" xmlns:serif="http://www.serif.com/" style="fill-rule:evenodd;clip-rule:evenodd;stroke-linejoin:round;stroke-miterlimit:2;"><rect id="sfcon_horizontal_simple_transparent-negatif" x="4.046" y="0" width="6583.33" height="2083.33" style="fill:none;"/><g><path d="M2535.37,649.835c0.088,0.015 0.162,0.073 0.295,0.073c13.217,-0 25.995,9.109 31.482,21.402l84.031,258.78l1.334,0l85.912,-258.916c5.547,-12.232 18.295,-21.266 31.451,-21.266c0.057,-0 0.097,-0.011 0.132,-0.024l0.07,-0.028c0.035,-0.013 0.075,-0.024 0.132,-0.024l38.378,0l-124.851,346.026c-23.266,65.055 -47.836,140.114 -130.14,140.114c-19.932,-0 -31.27,-2.668 -42.531,-4.653l1.667,-21.615c2.41,-15.309 13.141,-25.252 27.374,-24.479c1.364,0.106 2.774,0.243 4.153,0.243c55.794,-0 74.392,-77.014 74.392,-83.653c-0,-7.291 -7.973,-24.555 -11.974,-35.862l-114.877,-316.121l43.531,0l0.039,0.003Zm2121.28,-0.003l-124.85,346.026c-23.267,65.055 -47.867,140.114 -130.186,140.114c-19.902,-0 -31.24,-2.668 -42.532,-4.653l1.698,-21.615c2.41,-15.309 13.156,-25.252 27.344,-24.479c1.409,0.106 2.789,0.243 4.153,0.243c55.794,-0 74.422,-77.014 74.422,-83.653c0,-7.291 -8.003,-24.555 -12.005,-35.862l-114.877,-316.121l43.532,0c0.106,0 0.182,0.076 0.303,0.076c13.217,-0 26.04,9.109 31.512,21.402l84.032,258.78l1.364,0l85.882,-258.916c5.517,-12.232 18.294,-21.266 31.451,-21.266c0.152,-0 0.227,-0.076 0.333,-0.076l38.424,0Zm-873.757,-7.957c102.949,-0 171.96,74.392 171.96,177.31c-0,96.961 -70.345,177.294 -171.96,177.294c-102.251,0 -172.641,-80.333 -172.641,-177.294c-0,-102.918 69.011,-177.31 172.641,-177.31Zm1245.64,-105.249c-23.763,-12.542 -78.552,-17.162 -105.616,-17.162c-142.582,-0 -232.356,98.355 -232.356,238.297c-0,142.582 87.133,238.297 232.356,238.297c29.044,-0 80.532,-4.621 105.616,-19.803c0,-0 -0.421,-6.319 -0.927,-13.909c-0.374,-5.604 -3.299,-10.727 -7.934,-13.898c-4.636,-3.172 -10.471,-4.04 -15.829,-2.358c-25.7,8.08 -57.877,10.362 -80.926,10.362c-121.459,-0 -186.809,-82.513 -186.809,-198.691c-0,-114.198 67.33,-198.691 186.809,-198.691c24.78,-0 54.984,2.712 80.817,10.807c5.359,1.678 11.192,0.798 15.818,-2.384c4.627,-3.183 7.534,-8.315 7.884,-13.92c0.601,-8.999 1.097,-16.947 1.097,-16.947Zm7.682,283.184c-0,91.755 48.187,176.248 157.104,176.248c108.917,-0 157.104,-84.493 157.104,-176.248c0,-91.754 -48.187,-176.247 -157.104,-176.247c-108.917,-0 -157.104,84.493 -157.104,176.247Zm-2733.78,175.972l-0.394,0c-31.603,0 -63.055,-8.655 -93.733,-18.568l1.879,-18.264c1.789,-16.325 13.263,-28.663 27.268,-26.374c22.312,7.048 48.792,13.142 73.21,13.217c41.713,-0.075 102.251,-23.221 102.554,-85.941c-0.485,-60.129 -57.249,-80.683 -109.041,-105.586c-52.793,-25.555 -101.872,-53.808 -102.024,-126.654c0.227,-83.32 64.646,-126.988 151.452,-127.519c23.812,0 51.155,3.289 77.317,9.792l-1.152,20.477c-1.698,14.097 -13.672,25.283 -27.965,24.237c-0.228,-0 -0.228,0.212 -0.379,0.212c-13.551,-2.971 -27.404,-4.683 -44.744,-4.683c-0.076,-0 -0.258,-0 -0.41,0.03c-39.939,-0.061 -91.686,14.748 -91.883,71.118c1,53.066 57.385,70.981 108.966,97.355c52.565,26.707 101.978,59.326 102.129,137.007c-0.288,100.659 -75.831,139.446 -173.05,140.144Zm1742.78,-7.26l-34.301,-0l0,-338.69l31.785,0c0.106,0 0.137,0.076 0.288,0.076c15.643,-0 28.314,12.671 28.314,28.359c0,0.061 0.061,0.061 0.061,0.091l-0,25.313l1.303,-0c18.629,-38.53 63.752,-61.796 110.921,-61.796c87.655,-0 126.852,54.475 126.852,145.449l-0,174.172c-0.713,15.021 -12.975,27.011 -28.163,27.011c-0.074,-0 -0.075,0.014 -0.106,0.015l-34.195,-0l0,-175.309c0,-79.046 -17.188,-117.545 -71.694,-120.849c-71.057,-0 -102.948,57.112 -102.948,139.447l0,130.625c-1.152,14.566 -13.187,26.071 -28.041,26.071c-0.07,-0 -0.075,0.012 -0.076,0.015Zm-1152.36,-0l-33.815,-0l-0,-338.69l29.859,0c0.106,0 0.182,0.076 0.304,0.076c15.551,-0 28.071,12.52 28.298,28.011l0,21.083l1.334,0c23.858,-39.196 57.749,-57.127 107.541,-57.127c39.197,-0 78.363,19.931 96.324,65.752c23.237,-48.458 74.362,-65.752 104.889,-65.752c86.381,-0 117.545,55.794 117.545,129.519l-0,195.028c-2.85,12.657 -14.081,22.085 -27.556,22.085c-0.045,-0 -0.046,0.014 -0.076,0.015l-34.756,-0l0,-201.865c0,-41.849 -10.004,-94.293 -60.462,-94.293c-63.721,-0 -88.989,62.432 -88.989,125.517l0,144.858c-1.333,14.43 -13.262,25.768 -28.01,25.768c-0.075,-0 -0.076,0.014 -0.106,0.015l-34.271,-0l0,-201.865c0,-41.849 -10.004,-94.293 -60.462,-94.293c-63.752,-0 -88.989,62.432 -88.989,125.517l0,141.448c-0.076,0.273 -0.212,0.439 -0.212,0.864c0,15.627 -12.671,28.314 -28.314,28.314c-0.029,-0 -0.072,0.013 -0.076,0.015Zm505.046,-288.238c-0.026,-0.013 -0.052,-0.024 -0.081,-0.024c-14.232,0 -25.903,-10.488 -27.934,-24.115l-0,-26.313l79.727,0l-0,-26.889c-0,-82.365 21.266,-136.158 113.543,-136.158c15.9,0 29.238,1.986 41.834,3.987l-1.076,20.447c-0.864,14.915 -13.263,27.071 -28.193,25.979c-0.151,0 -0.121,0.167 -0.227,0.167c-1.031,-0.045 -2.076,-0.121 -3.077,-0.121c-53.748,-0 -60.386,34.574 -60.386,80.379l-0,32.209l89.655,0l-0,23.57c-0.697,14.687 -12.519,26.448 -27.223,26.934l-62.432,0l-0,263.692c-1.925,13.762 -13.627,24.479 -27.935,24.479c-0.076,-0 -0.031,0.015 -0.106,0.015l-34.377,-0l-0,-288.186l-51.58,0c-0.029,0 -0.055,-0.01 -0.081,-0.024l-0.051,-0.028Zm2020.81,11.27c13.863,-30.366 38.947,-67.991 108.917,-67.991c83.173,-0 114.858,55.449 114.858,129.38c-0,0 -0,144.864 -0,196.877c-0,10.116 -8.201,18.317 -18.317,18.317c-11.153,-0 -23.27,-0 -23.27,-0l0,-204.632c0,-63.37 -22.443,-104.296 -79.872,-104.296c-75.912,-0 -99.676,66.67 -99.676,122.779l0,167.832c0,10.116 -8.2,18.317 -18.316,18.317c-11.153,-0 -23.27,-0 -23.27,-0l0.006,-336.653c-0,0 9.737,0 19.303,0c10.116,0 18.317,8.201 18.317,18.316l-0,41.754l1.32,-0Zm-336.952,108.256c-0,-77.892 38.946,-140.601 111.557,-140.601c72.611,-0 111.557,62.709 111.557,140.601c0,77.892 -38.946,140.602 -111.557,140.602c-72.611,0 -111.557,-62.71 -111.557,-140.602Zm-1298.87,126.256c73.013,0 105.54,-66.419 105.54,-126.881c0,-64.389 -39.151,-126.821 -105.54,-126.821c-67.056,-0 -106.252,62.432 -106.252,126.821c-0,60.462 32.527,126.881 106.252,126.881Z" style="fill:#fff;fill-rule:nonzero;"/><path d="M1878.74,500c0,-91.986 -74.681,-166.667 -166.667,-166.667l-1083.34,0c-91.986,0 -166.666,74.681 -166.666,166.667l-0,1083.34c-0,91.986 74.68,166.667 166.666,166.667l1083.34,-0c91.986,-0 166.667,-74.681 166.667,-166.667l0,-1083.34Z" style="fill:#fff;"/><path d="M1529.17,516.974c-78.819,2.698 -147.634,46.209 -198.852,106.239c-56.71,65.925 -94.424,144.051 -121.638,223.852c-48.602,-39.873 -86.081,-91.464 -164.125,-113.905c-60.293,-17.335 -123.616,-10.209 -181.862,33.191c-27.587,20.6 -46.596,51.716 -55.631,81.059c-23.409,76.08 24.585,143.83 46.403,168.124l47.703,51.066c9.81,10.03 33.495,36.164 21.901,73.602c-12.465,40.772 -61.58,67.086 -111.953,51.619c-22.51,-6.904 -54.828,-23.658 -47.579,-47.219c2.961,-9.671 9.878,-16.948 13.614,-25.194c3.376,-7.208 5.022,-12.562 6.046,-15.772c9.2,-30.008 -3.39,-69.092 -35.556,-79.04c-30.036,-9.214 -60.75,-1.909 -72.662,36.732c-13.503,43.913 7.512,123.617 120.102,158.301c131.904,40.592 243.456,-31.253 259.283,-124.889c9.975,-58.647 -16.533,-102.255 -65.038,-158.287l-39.555,-43.76c-23.935,-23.921 -32.167,-64.707 -7.388,-96.043c20.933,-26.467 50.692,-37.715 99.516,-24.461c71.236,19.314 102.96,68.747 155.921,108.619c-21.832,71.749 -36.151,143.761 -49.073,208.329l-7.941,48.173c-37.853,198.548 -66.768,307.623 -141.879,370.227c-15.149,10.777 -36.774,26.895 -69.369,28.044c-17.128,0.525 -22.648,-11.262 -22.883,-16.409c-0.388,-11.967 9.712,-17.473 16.422,-22.855c10.058,-5.493 25.235,-14.569 24.198,-43.664c-1.093,-34.38 -29.566,-64.181 -70.739,-62.811c-30.825,1.038 -77.822,30.022 -76.038,83.149c1.813,54.884 52.947,96.001 130.064,93.386c41.214,-1.383 133.273,-18.151 223.962,-125.954c105.575,-123.63 135.099,-265.301 157.305,-369.009l24.806,-136.94c13.752,1.661 28.486,2.782 44.507,3.155c131.503,2.781 197.233,-65.301 198.257,-114.859c0.664,-29.98 -19.66,-59.518 -48.133,-58.812c-20.337,0.567 -45.932,14.153 -52.047,42.293c-6.032,27.601 41.823,52.546 4.427,76.826c-26.563,17.183 -74.183,29.275 -141.256,19.466l12.189,-67.404c24.889,-127.809 55.589,-285.003 172.067,-288.849c8.494,-0.401 39.526,0.36 40.246,20.919c0.207,6.821 -1.508,8.619 -9.519,24.294c-8.19,12.231 -11.275,22.69 -10.874,34.643c1.121,32.61 25.927,54.082 61.856,52.837c48.036,-1.619 61.829,-48.368 61.041,-72.413c-1.965,-56.502 -61.497,-92.197 -140.246,-89.596Z" style="fill:#6e358c;fill-rule:nonzero;"/><path d="M2194.31,1590.17l64.811,0l31.423,-70.211l144.351,-0l31.424,70.211l64.811,0l-167.428,-358.914l-1.964,0l-167.428,358.914Zm116.365,-116.365c19.149,-43.207 37.315,-88.378 52.536,-125.202c14.73,40.261 31.423,80.031 51.554,125.202l-104.09,0Z" style="fill:#fff;fill-rule:nonzero;"/><path d="M2723.1,1492.95c30.932,-35.351 61.865,-70.702 92.306,-106.545l14.239,-13.747l-0,217.508l58.918,0l0,-358.914l-0.982,0l-164.481,182.649l-164.482,-182.649l-0.982,0l0,358.914l59.41,0l-0,-217.508l13.748,13.747l92.306,106.545Z" style="fill:#fff;fill-rule:nonzero;"/><path d="M3041.76,1596.55c79.05,0 126.185,-37.315 126.185,-99.18c-0,-55.973 -35.351,-83.468 -100.162,-107.527c-54.009,-19.639 -72.667,-36.333 -72.667,-61.374c0,-27.004 27.005,-43.698 67.266,-43.698c31.914,0 65.793,9.82 85.923,21.113l0,-57.937c-21.112,-8.838 -54.991,-17.676 -90.342,-17.676c-71.684,0 -123.238,37.316 -123.238,99.18c-0,57.446 34.369,84.942 99.18,108.018c54.008,19.149 74.139,34.37 74.139,62.356c0,19.149 -15.221,31.914 -40.261,37.806c-10.311,2.946 -22.586,3.928 -35.351,3.928c-35.352,-0.982 -69.23,-12.766 -94.271,-25.531l0,60.391c24.55,10.311 62.847,20.131 103.599,20.131Z" style="fill:#fff;fill-rule:nonzero;"/><path d="M3434.06,1288.7l-0,-52.045l-268.081,0l-0,52.045l103.108,0l-0,301.468l61.865,0l-0,-301.468l103.108,0Z" style="fill:#fff;fill-rule:nonzero;"/><path d="M3696.25,1590.17l0,-52.045l-167.918,0l-0,-101.635l136.004,0l0,-50.572l-136.004,0l-0,-97.216l160.554,0l-0,-52.045l-222.419,0l-0,353.513l229.783,0Z" style="fill:#fff;fill-rule:nonzero;"/><path d="M3741.42,1236.65l-0,353.513l60.882,0l0,-131.094l62.356,-0l67.757,131.094l66.283,0l-77.085,-141.405c38.297,-13.257 69.721,-47.626 69.721,-99.671c-0,-72.176 -50.572,-112.437 -130.604,-112.437l-119.31,0Zm119.801,52.045c41.734,0 68.248,21.113 68.248,60.392c-0,38.788 -25.532,59.901 -65.302,59.901l-61.865,-0l0,-120.293l58.919,0Z" style="fill:#fff;fill-rule:nonzero;"/><path d="M4152.38,1590.17c116.365,0 191.487,-71.684 191.487,-176.756c-0,-104.581 -76.104,-176.757 -192.96,-176.757l-107.526,0l-0,353.513l108.999,0Zm-1.964,-301.468c80.523,0 131.095,52.045 131.095,124.712c-0,73.157 -50.572,124.711 -129.622,124.711l-46.644,0l0,-249.423l45.171,0Z" style="fill:#fff;fill-rule:nonzero;"/><path d="M4325.2,1590.17l64.811,0l31.423,-70.211l144.351,-0l31.424,70.211l64.81,0l-167.427,-358.914l-1.964,0l-167.428,358.914Zm116.365,-116.365c19.148,-43.207 37.315,-88.378 52.536,-125.202c14.729,40.261 31.423,80.031 51.554,125.202l-104.09,0Z" style="fill:#fff;fill-rule:nonzero;"/><path d="M4854,1492.95c30.933,-35.351 61.865,-70.702 92.307,-106.545l14.238,-13.747l0,217.508l58.919,0l0,-358.914l-0.982,0l-164.482,182.649l-164.481,-182.649l-0.982,0l-0,358.914l59.41,0l-0,-217.508l13.747,13.747l92.306,106.545Z" style="fill:#fff;fill-rule:nonzero;"/><path d="M5140.25,1309.81c15.711,-11.784 42.225,-22.586 72.175,-22.586c30.933,0 52.536,13.257 60.883,36.333c3.928,10.311 5.401,22.586 3.928,36.334c-5.892,62.356 -65.302,126.184 -155.644,230.274l237.148,0l0,-52.536l-125.202,0c56.464,-65.301 109,-121.765 109,-190.013c-0,-68.739 -47.626,-117.347 -122.748,-117.347c-33.387,0 -61.865,9.329 -79.54,21.604l-0,57.937Z" style="fill:#fff;fill-rule:nonzero;"/><path d="M5377.4,1413.41c0,103.108 54.009,183.139 138.95,183.139c85.433,0 138.951,-80.031 138.951,-183.139c-0,-103.108 -53.518,-183.14 -138.951,-183.14c-84.941,0 -138.95,80.032 -138.95,183.14Zm62.356,-0c-0,-75.122 28.968,-126.185 76.594,-126.185c48.117,0 77.086,51.063 77.086,126.185c-0,75.121 -28.969,126.184 -77.086,126.184c-47.626,0 -76.594,-51.063 -76.594,-126.184Z" style="fill:#fff;fill-rule:nonzero;"/><path d="M5673.95,1309.81c15.712,-11.784 42.225,-22.586 72.176,-22.586c30.932,0 52.536,13.257 60.883,36.333c3.927,10.311 5.4,22.586 3.927,36.334c-5.891,62.356 -65.301,126.184 -155.643,230.274l237.148,0l-0,-52.536l-125.203,0c56.464,-65.301 109,-121.765 109,-190.013c0,-68.739 -47.626,-117.347 -122.747,-117.347c-33.388,0 -61.865,9.329 -79.541,21.604l0,57.937Z" style="fill:#fff;fill-rule:nonzero;"/><path d="M5915.03,1574.46c18.167,11.784 47.135,22.095 85.433,22.095c75.612,0 129.13,-42.716 129.13,-113.419c0,-70.702 -50.081,-116.855 -115.383,-116.855c-17.675,-0 -27.986,2.946 -33.878,4.91l2.946,-81.996l126.185,0l-0,-52.536l-179.703,0l-7.856,190.013c8.838,-3.927 32.406,-13.256 67.757,-13.256c43.698,-0 76.594,24.058 76.594,63.828c0,40.753 -31.423,64.811 -73.157,64.811c-32.405,0 -60.883,-9.82 -78.068,-22.094l0,54.499Z" style="fill:#fff;fill-rule:nonzero;"/></g></svg>